<svg width="24" height="24" viewBox="0 0 24 24" fill="none" xmlns="http://www.w3.org/2000/svg">
<g clip-path="url(#clip0_202_62005)">
<path d="M3.45312 17C5.01095 19.9058 7.65209 22.0798 10.8031 23.05C11.4952 23.3156 12.2611 23.3156 12.9531 23.05C14.5162 22.575 15.97 21.796 17.2313 20.7578C18.4926 19.7196 19.5365 18.4426 20.3031 17" stroke="#1674FF" stroke-width="1.5" stroke-linecap="round" stroke-linejoin="round"/>
<path d="M21.6228 5.0009V3.9209C21.6259 3.63541 21.5464 3.35512 21.3938 3.11381C21.2412 2.8725 21.0221 2.68048 20.7628 2.5609C17.963 1.33988 14.9372 0.723126 11.8828 0.750898C8.8285 0.723426 5.80271 1.34017 3.00281 2.5609C2.74396 2.68202 2.5248 2.87412 2.37079 3.11486C2.21679 3.35561 2.13426 3.63511 2.13281 3.9209V5.0009" stroke="#1674FF" stroke-width="1.5" stroke-linecap="round" stroke-linejoin="round"/>
<path d="M13.25 14.1875V8.1875" stroke="#1674FF" stroke-width="1.5" stroke-linecap="round" stroke-linejoin="round"/>
<path d="M13.25 8.1875H14.38C14.8536 8.22211 15.2966 8.43468 15.6199 8.7825C15.9433 9.13032 16.123 9.58761 16.123 10.0625C16.123 10.5374 15.9433 10.9947 15.6199 11.3425C15.2966 11.6903 14.8536 11.9029 14.38 11.9375H13.25" stroke="#1674FF" stroke-width="1.5" stroke-linecap="round" stroke-linejoin="round"/>
<path d="M4.5 8.1875H3.5C2.96957 8.1875 2.46086 8.39821 2.08579 8.77329C1.71071 9.14836 1.5 9.65707 1.5 10.1875V12.1875C1.5 12.7179 1.71071 13.2266 2.08579 13.6017C2.46086 13.9768 2.96957 14.1875 3.5 14.1875H4.5" stroke="#1674FF" stroke-width="1.5" stroke-linecap="round" stroke-linejoin="round"/>
<path d="M10.5 8.1875H9.5C8.96957 8.1875 8.46086 8.39821 8.08579 8.77329C7.71071 9.14836 7.5 9.65707 7.5 10.1875V12.1875C7.5 12.7179 7.71071 13.2266 8.08579 13.6017C8.46086 13.9768 8.96957 14.1875 9.5 14.1875H10.5" stroke="#1674FF" stroke-width="1.5" stroke-linecap="round" stroke-linejoin="round"/>
<path d="M19.5 14.0975V9.6875C19.5 9.28968 19.658 8.90815 19.9393 8.62684C20.2206 8.34554 20.6022 8.1875 21 8.1875C21.3978 8.1875 21.7794 8.34554 22.0607 8.62684C22.342 8.90815 22.5 9.28968 22.5 9.6875V14.1875" stroke="#1674FF" stroke-width="1.5" stroke-linecap="round" stroke-linejoin="round"/>
<path d="M19.5 12.1875H22.5" stroke="#1674FF" stroke-width="1.5" stroke-linecap="round" stroke-linejoin="round"/>
</g>
<defs>
<clipPath id="clip0_202_62005">
<rect width="24" height="24" fill="white"/>
</clipPath>
</defs>
</svg>
