<svg width="24" height="24" viewBox="0 0 24 24" fill="none" xmlns="http://www.w3.org/2000/svg">
<g clip-path="url(#clip0_202_62027)">
<path d="M20.9928 8.99362C20.4987 8.9939 20.0095 8.89644 19.5533 8.70687C19.0971 8.51729 18.6829 8.23935 18.3345 7.88903C17.9861 7.53872 17.7105 7.12296 17.5235 6.66568C17.3365 6.20841 17.2418 5.71865 17.2448 5.22462C16.5987 5.72088 15.8075 5.99108 14.9928 5.99362C14.372 5.99414 13.7608 5.84041 13.2142 5.54624C12.6675 5.25208 12.2025 4.82671 11.8609 4.30834C11.5193 3.78998 11.3119 3.19487 11.2572 2.5765C11.2026 1.95812 11.3024 1.33586 11.5478 0.765625C9.19794 0.861018 6.93722 1.69121 5.0841 3.13927C3.23099 4.58732 1.87886 6.58026 1.21818 8.83734C0.557507 11.0945 0.621583 13.5019 1.40138 15.7207C2.18118 17.9394 3.63741 19.8576 5.56493 21.2051C7.49245 22.5525 9.79412 23.2613 12.1457 23.2315C14.4973 23.2018 16.7803 22.435 18.6732 21.0393C20.566 19.6435 21.9733 17.6891 22.6967 15.4514C23.4201 13.2136 23.4233 10.8053 22.7058 8.56562C22.1776 8.84414 21.5899 8.99097 20.9928 8.99362Z" stroke="#1674FF" stroke-width="1.5" stroke-linecap="round" stroke-linejoin="round"/>
<path d="M7.47656 12.7422C8.7192 12.7422 9.72656 11.7349 9.72656 10.4922C9.72656 9.24955 8.7192 8.24219 7.47656 8.24219C6.23392 8.24219 5.22656 9.24955 5.22656 10.4922C5.22656 11.7349 6.23392 12.7422 7.47656 12.7422Z" stroke="#1674FF" stroke-width="1.5" stroke-linecap="round" stroke-linejoin="round"/>
<path d="M14.2266 18.7422C15.055 18.7422 15.7266 18.0706 15.7266 17.2422C15.7266 16.4138 15.055 15.7422 14.2266 15.7422C13.3982 15.7422 12.7266 16.4138 12.7266 17.2422C12.7266 18.0706 13.3982 18.7422 14.2266 18.7422Z" stroke="#1674FF" stroke-width="1.5" stroke-linecap="round" stroke-linejoin="round"/>
<path d="M7.10156 17.2422C6.89445 17.2422 6.72656 17.0743 6.72656 16.8672C6.72656 16.6601 6.89445 16.4922 7.10156 16.4922" stroke="#1674FF" stroke-width="1.5"/>
<path d="M7.10156 17.2422C7.30866 17.2422 7.47656 17.0743 7.47656 16.8672C7.47656 16.6601 7.30866 16.4922 7.10156 16.4922" stroke="#1674FF" stroke-width="1.5"/>
<path d="M13.1016 10.4922C12.8945 10.4922 12.7266 10.3243 12.7266 10.1172C12.7266 9.91009 12.8945 9.74219 13.1016 9.74219" stroke="#1674FF" stroke-width="1.5"/>
<path d="M13.1016 10.4922C13.3088 10.4922 13.4766 10.3243 13.4766 10.1172C13.4766 9.91009 13.3088 9.74219 13.1016 9.74219" stroke="#1674FF" stroke-width="1.5"/>
<path d="M19.1016 13.4922C18.8945 13.4922 18.7266 13.3243 18.7266 13.1172C18.7266 12.9101 18.8945 12.7422 19.1016 12.7422" stroke="#1674FF" stroke-width="1.5"/>
<path d="M19.1016 13.4922C19.3087 13.4922 19.4766 13.3243 19.4766 13.1172C19.4766 12.9101 19.3087 12.7422 19.1016 12.7422" stroke="#1674FF" stroke-width="1.5"/>
</g>
<defs>
<clipPath id="clip0_202_62027">
<rect width="24" height="24" fill="white"/>
</clipPath>
</defs>
</svg>
