<svg width="24" height="24" viewBox="0 0 24 24" fill="none" xmlns="http://www.w3.org/2000/svg">
<g clip-path="url(#clip0_202_62018)">
<path d="M3.75 4.75C3.75 5.81087 4.17143 6.82828 4.92157 7.57843C5.67172 8.32857 6.68913 8.75 7.75 8.75C8.81087 8.75 9.82828 8.32857 10.5784 7.57843C11.3286 6.82828 11.75 5.81087 11.75 4.75C11.75 3.68913 11.3286 2.67172 10.5784 1.92157C9.82828 1.17143 8.81087 0.75 7.75 0.75C6.68913 0.75 5.67172 1.17143 4.92157 1.92157C4.17143 2.67172 3.75 3.68913 3.75 4.75Z" stroke="#1674FF" stroke-width="1.5" stroke-linecap="round" stroke-linejoin="round"/>
<path d="M10.75 18.2504H0.75C0.74992 16.9714 1.10029 15.7167 1.76307 14.6228C2.42585 13.5288 3.37569 12.6374 4.50944 12.0453C5.64318 11.4531 6.9175 11.183 8.19399 11.2641C9.47047 11.3452 10.7003 11.7745 11.75 12.5054" stroke="#1674FF" stroke-width="1.5" stroke-linecap="round" stroke-linejoin="round"/>
<path d="M15.25 15.75H21.75C21.75 15.75 23.25 15.75 23.25 17.25V21.75C23.25 21.75 23.25 23.25 21.75 23.25H15.25C15.25 23.25 13.75 23.25 13.75 21.75V17.25C13.75 17.25 13.75 15.75 15.25 15.75Z" stroke="#1674FF" stroke-width="1.5" stroke-linecap="round" stroke-linejoin="round"/>
<path d="M15 15.771V14.25C15 13.3217 15.3687 12.4315 16.0251 11.7751C16.6815 11.1187 17.5717 10.75 18.5 10.75C19.4283 10.75 20.3185 11.1187 20.9749 11.7751C21.6313 12.4315 22 13.3217 22 14.25V15.771" stroke="#1674FF" stroke-width="1.5" stroke-linecap="round" stroke-linejoin="round"/>
<path d="M17 19.5L18 20.5L20 18.5" stroke="#1674FF" stroke-width="1.5" stroke-linecap="round" stroke-linejoin="round"/>
</g>
<defs>
<clipPath id="clip0_202_62018">
<rect width="24" height="24" fill="white"/>
</clipPath>
</defs>
</svg>
