<svg width="163" height="46" viewBox="0 0 163 46" fill="none" xmlns="http://www.w3.org/2000/svg">
<rect x="0.192521" y="0.192521" width="161.672" height="45.615" rx="22.8075" fill="white"/>
<rect x="0.192521" y="0.192521" width="161.672" height="45.615" rx="22.8075" stroke="#D3D7DE" stroke-width="0.385042"/>
<path d="M51.9297 13.6458V15.0965L53.7423 14.4124V20.1447H55.3269V12.3129H55.1948L51.9297 13.6458Z" fill="#11151C"/>
<path d="M61.8401 17.2904V12.4191H60.9038L56.4502 18.2104V18.6704H60.2436V20.1447H61.8401V18.6704H63.0406V17.2904H61.8401ZM60.2436 15.2499V17.2904H58.695L60.2436 15.2499Z" fill="#11151C"/>
<path d="M68.4624 18.0099V16.6416H64.2369V18.0099H68.4624Z" fill="#11151C"/>
<path d="M74.196 15.3088C73.7998 14.7427 73.0436 14.495 72.3953 14.495C70.9548 14.495 69.6464 15.6155 69.6464 17.3847C69.6464 19.154 70.9548 20.2863 72.3953 20.2863C73.0196 20.2863 73.7998 20.0268 74.196 19.4606V20.1447H75.7685V11.6406H74.196V15.3088ZM72.6954 18.8473C71.9032 18.8473 71.2429 18.1868 71.2429 17.3847C71.2429 16.5709 71.9032 15.934 72.6954 15.934C73.4277 15.934 74.148 16.5355 74.148 17.3847C74.148 18.2222 73.4637 18.8473 72.6954 18.8473Z" fill="#11151C"/>
<path d="M81.5697 15.3678C81.1975 14.8017 80.4773 14.495 79.757 14.495C78.1485 14.495 77.0201 15.6863 77.0201 17.3965C77.0201 19.1068 78.1725 20.2863 79.721 20.2863C80.4773 20.2863 81.1975 19.9206 81.5697 19.3545V20.1447H83.1422V14.6365H81.5697V15.3678ZM80.0691 18.8473C79.2409 18.8473 78.6286 18.1632 78.6286 17.3965C78.6286 16.5945 79.2409 15.934 80.0571 15.934C80.8374 15.934 81.5217 16.5591 81.5217 17.3965C81.5217 18.1868 80.8614 18.8473 80.0691 18.8473Z" fill="#11151C"/>
<path d="M87.0587 17.8211L85.7382 14.6365H84.0096L86.2304 19.6258L84.8979 22.8458H86.5785L90.0358 14.6365H88.3432L87.0587 17.8211Z" fill="#11151C"/>
<path d="M102.66 12.0181H101.676L98.7349 18.0452L95.7819 12.0181H94.7975L93.7892 20.1447H94.8575L95.6138 13.9524L98.2667 19.2601H99.2151L101.844 13.9524L102.612 20.1447H103.681L102.66 12.0181Z" fill="#11151C"/>
<path d="M107.734 20.2863C109.331 20.2863 110.675 19.1304 110.675 17.3847C110.675 15.6391 109.331 14.495 107.734 14.495C106.137 14.495 104.805 15.6391 104.805 17.3847C104.805 19.1304 106.137 20.2863 107.734 20.2863ZM107.734 19.3191C106.714 19.3191 105.861 18.5288 105.861 17.3847C105.861 16.2524 106.714 15.4622 107.734 15.4622C108.766 15.4622 109.631 16.2524 109.631 17.3847C109.631 18.5288 108.766 19.3191 107.734 19.3191Z" fill="#11151C"/>
<path d="M115.034 14.495C114.422 14.495 113.51 14.8017 113.173 15.474V14.6365H112.129V20.1447H113.173V17.1606C113.173 15.9693 114.11 15.5093 114.89 15.5093C115.67 15.5093 116.247 16.0991 116.247 17.0191V20.1447H117.291V16.9601C117.303 15.415 116.427 14.495 115.034 14.495Z" fill="#11151C"/>
<path d="M124.328 17.3729C124.328 15.6273 123.139 14.495 121.543 14.495C119.946 14.495 118.662 15.6273 118.662 17.3729C118.662 19.1186 119.946 20.2863 121.543 20.2863C122.623 20.2863 123.632 19.7673 124.112 18.8119L123.211 18.4581C122.887 19.0124 122.263 19.3191 121.579 19.3191C120.618 19.3191 119.898 18.8119 119.742 17.8329H124.304C124.316 17.6796 124.328 17.5263 124.328 17.3729ZM119.754 16.9483C119.922 15.9575 120.594 15.4622 121.543 15.4622C122.467 15.4622 123.151 16.0047 123.283 16.9483H119.754Z" fill="#11151C"/>
<path d="M127.735 18.694L126.042 14.6365H124.914L127.171 19.9796L125.994 22.8222H127.099L130.58 14.6365H129.452L127.735 18.694Z" fill="#11151C"/>
<path d="M57.0675 29.8639C57.8478 29.569 58.1119 28.8495 58.1119 28.1418C58.1119 26.868 57.2476 26.0659 55.8791 26.0659H52.77V34.1926H56.1432C57.6557 34.1926 58.556 33.0721 58.556 31.9044C58.556 31.0198 58.0399 30.0762 57.0675 29.8639ZM57.0195 28.248C57.0195 28.9439 56.6474 29.4511 55.9031 29.4511H53.8624V27.0567H55.8671C56.6233 27.0567 57.0195 27.5521 57.0195 28.248ZM53.8624 33.2018V30.3947H55.9751C56.9835 30.3947 57.4636 31.0788 57.4636 31.8101C57.4636 32.5649 56.9355 33.2018 55.9151 33.2018H53.8624Z" fill="#11151C"/>
<path d="M64.497 29.5454C64.1249 28.8967 63.3326 28.5429 62.4923 28.5429C60.9077 28.5429 59.6953 29.8049 59.6953 31.4326C59.6953 33.1193 60.9798 34.3342 62.4443 34.3342C63.3446 34.3342 64.1249 33.8742 64.497 33.2136V34.1926H65.5414V28.6844H64.497V29.5454ZM62.6003 33.367C61.568 33.367 60.7517 32.4824 60.7517 31.4326C60.7517 30.3947 61.568 29.5101 62.5883 29.5101C63.5247 29.5101 64.497 30.3003 64.497 31.4326C64.497 32.5531 63.5967 33.367 62.6003 33.367Z" fill="#11151C"/>
<path d="M69.988 34.3342C70.8643 34.3342 71.6326 34.0039 72.1248 33.4613L71.4645 32.789C71.1164 33.1429 70.6122 33.367 70.024 33.367C68.9196 33.367 68.0313 32.5649 68.0313 31.4326C68.0313 30.3003 68.9196 29.5101 70.024 29.5101C70.6122 29.5101 71.1164 29.7342 71.4645 30.088L72.1248 29.4157C71.6326 28.8849 70.8643 28.5429 69.988 28.5429C68.3794 28.5429 66.9749 29.687 66.9749 31.4326C66.9749 33.1783 68.3794 34.3342 69.988 34.3342Z" fill="#11151C"/>
<path d="M75.4843 31.067L77.8851 28.6844H76.4326L74.4879 30.6306V25.6885H73.4436V34.1926H74.4879V31.5034L77.0688 34.1926H78.4733L75.4843 31.067Z" fill="#11151C"/>
<path d="M85.9484 34.3342C88.3012 34.3342 89.8618 32.9659 89.8618 30.1234H86.2605V31.0552H88.6614C88.6614 32.3526 87.4369 33.3434 85.9484 33.3434C84.2078 33.3434 82.8513 31.8926 82.8513 30.147C82.8513 28.4013 84.2078 26.9152 85.9484 26.9152C86.7287 26.9152 87.4489 27.2218 87.9771 27.6818L88.7334 26.9859C88.0131 26.3372 87.0408 25.9244 85.9484 25.9244C83.5956 25.9244 81.7589 27.8352 81.7589 30.147C81.7589 32.447 83.5956 34.3342 85.9484 34.3342Z" fill="#11151C"/>
<path d="M95.2257 31.7157C95.2137 32.907 94.2774 33.367 93.4971 33.367C92.7168 33.367 92.1526 32.7772 92.1526 31.8454V28.6844H91.1083V31.869C91.0963 33.4142 91.9606 34.3342 93.3651 34.3342C93.9893 34.3342 94.8896 34.0275 95.2257 33.3316V34.1926H96.2701V28.6844H95.2257V31.7157Z" fill="#11151C"/>
<path d="M102.503 29.5454C102.131 28.8967 101.338 28.5429 100.498 28.5429C98.9134 28.5429 97.7009 29.8049 97.7009 31.4326C97.7009 33.1193 98.9854 34.3342 100.45 34.3342C101.35 34.3342 102.131 33.8742 102.503 33.2136V34.1926H103.547V28.6844H102.503V29.5454ZM100.606 33.367C99.5736 33.367 98.7573 32.4824 98.7573 31.4326C98.7573 30.3947 99.5736 29.5101 100.594 29.5101C101.53 29.5101 102.503 30.3003 102.503 31.4326C102.503 32.5531 101.602 33.367 100.606 33.367Z" fill="#11151C"/>
<path d="M108.006 28.5429C107.261 28.5429 106.721 28.9675 106.433 29.9347V28.6844H105.377V34.1926H106.433V32.1757C106.433 30.7249 106.877 29.5336 107.994 29.5336C108.21 29.5336 108.51 29.5808 108.81 29.7224L108.978 28.7552C108.81 28.649 108.402 28.5429 108.006 28.5429Z" fill="#11151C"/>
<path d="M114.249 29.5454C113.877 28.8967 113.085 28.5429 112.244 28.5429C110.66 28.5429 109.447 29.8049 109.447 31.4326C109.447 33.1193 110.732 34.3342 112.196 34.3342C113.097 34.3342 113.877 33.8742 114.249 33.2136V34.1926H115.293V28.6844H114.249V29.5454ZM112.352 33.367C111.32 33.367 110.504 32.4824 110.504 31.4326C110.504 30.3947 111.32 29.5101 112.34 29.5101C113.277 29.5101 114.249 30.3003 114.249 31.4326C114.249 32.5531 113.349 33.367 112.352 33.367Z" fill="#11151C"/>
<path d="M120.028 28.5429C119.416 28.5429 118.504 28.8495 118.167 29.5218V28.6844H117.123V34.1926H118.167V31.2085C118.167 30.0172 119.104 29.5572 119.884 29.5572C120.664 29.5572 121.241 30.147 121.241 31.067V34.1926H122.285V31.008C122.297 29.4629 121.421 28.5429 120.028 28.5429Z" fill="#11151C"/>
<path d="M125.434 28.6844V26.6085H124.39V28.6844H123.381V29.569H124.39V34.1926H125.434V29.569H126.646V28.6844H125.434Z" fill="#11151C"/>
<path d="M132.991 31.4208C132.991 29.6752 131.803 28.5429 130.206 28.5429C128.609 28.5429 127.325 29.6752 127.325 31.4208C127.325 33.1665 128.609 34.3342 130.206 34.3342C131.286 34.3342 132.295 33.8152 132.775 32.8598L131.875 32.5059C131.55 33.0603 130.926 33.367 130.242 33.367C129.282 33.367 128.561 32.8598 128.405 31.8808H132.967C132.979 31.7275 132.991 31.5742 132.991 31.4208ZM128.417 30.9962C128.585 30.0054 129.258 29.5101 130.206 29.5101C131.13 29.5101 131.815 30.0526 131.947 30.9962H128.417Z" fill="#11151C"/>
<path d="M139.708 31.4208C139.708 29.6752 138.52 28.5429 136.923 28.5429C135.327 28.5429 134.042 29.6752 134.042 31.4208C134.042 33.1665 135.327 34.3342 136.923 34.3342C138.004 34.3342 139.012 33.8152 139.492 32.8598L138.592 32.5059C138.268 33.0603 137.643 33.367 136.959 33.367C135.999 33.367 135.279 32.8598 135.123 31.8808H139.684C139.696 31.7275 139.708 31.5742 139.708 31.4208ZM135.135 30.9962C135.303 30.0054 135.975 29.5101 136.923 29.5101C137.848 29.5101 138.532 30.0526 138.664 30.9962H135.135Z" fill="#11151C"/>
<path d="M38.578 22.1683C38.578 20.6697 37.6059 19.3735 36.2287 18.8469C36.8363 17.5508 36.5933 15.9306 35.5401 14.8369C34.4465 13.7838 32.8263 13.5408 31.5301 14.1483C31.0036 12.7712 29.7074 11.7991 28.2087 11.7991C26.6695 11.7991 25.3734 12.7712 24.8468 14.1483C23.5506 13.5408 21.9304 13.7838 20.8773 14.8369C19.7837 15.9306 19.5406 17.5508 20.1482 18.8469C18.771 19.3735 17.8394 20.6697 17.8394 22.1683C17.8394 23.7075 18.771 25.0037 20.1482 25.5303C19.5406 26.8264 19.7837 28.4466 20.8773 29.4998C21.9304 30.5934 23.5506 30.8364 24.8468 30.2288C25.3734 31.606 26.6695 32.5376 28.2087 32.5376C29.7074 32.5376 31.0036 31.606 31.5301 30.2288C32.8668 30.8364 34.4465 30.5934 35.5401 29.4998C36.5933 28.4466 36.8363 26.8264 36.2287 25.5303C37.6059 25.0037 38.578 23.7075 38.578 22.1683ZM29.1808 26.0163V26.7049C29.1808 27.0695 28.8568 27.353 28.5328 27.353H27.8847C27.5201 27.353 27.2366 27.0695 27.2366 26.7049V26.0163C26.7505 25.9353 26.305 25.8138 25.9404 25.5303C25.6974 25.3682 25.6569 25.0037 25.8594 24.8012L26.5885 24.0721C26.71 23.9506 26.9531 23.9101 27.1556 23.9911C27.2771 24.0721 27.3986 24.1126 27.5606 24.1126H28.8973C29.0998 24.1126 29.2214 23.9506 29.2214 23.748C29.2214 23.586 29.1403 23.4645 28.9783 23.424L26.9531 22.8569C26.062 22.5734 25.3329 21.8443 25.2114 20.9127C25.0493 19.6165 25.9809 18.5229 27.2366 18.3609V17.6318C27.2366 17.3077 27.5201 16.9837 27.8847 16.9837H28.5328C28.8568 16.9837 29.1808 17.3077 29.1808 17.6318V18.3609C29.6264 18.4419 30.072 18.5634 30.4365 18.8469C30.72 19.009 30.72 19.3735 30.5175 19.576L29.7884 20.3051C29.6669 20.4266 29.4239 20.4671 29.2214 20.3861C29.0998 20.3051 28.9783 20.2646 28.8163 20.2646H27.4796C27.3176 20.2646 27.1556 20.4266 27.1556 20.6292C27.1556 20.7912 27.2366 20.9127 27.3986 20.9532L29.4239 21.5203C30.315 21.8038 31.0441 22.5329 31.1656 23.4645C31.3276 24.7607 30.396 25.8543 29.1808 26.0163Z" fill="#29B077"/>
</svg>
