<svg width="184" height="47" viewBox="0 0 184 47" fill="none" xmlns="http://www.w3.org/2000/svg">
<rect x="0.247773" y="0.192521" width="183.28" height="46.615" rx="23.3075" fill="white"/>
<rect x="0.247773" y="0.192521" width="183.28" height="46.615" rx="23.3075" stroke="#D3D7DE" stroke-width="0.385042"/>
<path d="M38.976 27.1903C43.5545 19.5344 37.1793 10.3125 27.0369 10.3125C16.8366 10.3125 10.4614 19.5344 15.0399 27.1903C11.7364 30.9603 14.8081 36.2962 20.3719 36.2962C22.6322 36.2962 24.8925 35.3102 26.1676 33.3963C26.5733 33.4543 27.4426 33.4543 27.8483 33.3963C29.1234 35.3102 31.3837 36.2962 33.644 36.2962C39.2078 36.2962 42.2795 30.9023 38.976 27.1903ZM19.3287 22.3764V19.0124H21.7049V22.3764H19.3287ZM31.9053 27.3643C28.6597 28.8143 24.0232 28.1183 21.0095 25.4503V24.0004C24.1971 26.4943 28.3699 27.1903 31.9053 25.9723V27.3643ZM23.1538 22.3764V19.0124H32.7746V22.3764H23.1538Z" fill="#FF6200"/>
<path d="M49.9068 13.5495L50.5852 20.6968H52.5913L53.8037 18.1043C54.0923 17.4454 54.28 16.9155 54.6552 15.9128H54.6841C54.6841 16.7722 54.6985 17.4597 54.7418 18.2045L54.9583 20.6968H56.9501L60.4428 13.5495H58.3067L57.0799 16.5287C56.7769 17.3595 56.5171 18.0613 56.2861 18.8491H56.2573C56.3006 18.0899 56.2717 17.3881 56.2428 16.5574L56.0696 13.5495H54.3377L52.9233 16.6576C52.6202 17.3738 52.2882 18.0899 52.0429 18.8491H52.014C52.0573 18.0613 52.0862 17.3881 52.0862 16.5717L52.0717 13.5495H49.9068Z" fill="#11151C"/>
<path d="M61.6696 23.59L62.2613 20.5678H62.2902C62.5356 20.7111 63.0407 20.8543 63.6325 20.8543C66.1294 20.8543 67.8036 18.5769 67.8036 16.0847C67.8036 14.6238 67.0531 13.3776 65.4943 13.3776C64.6283 13.3776 63.7768 13.8073 63.185 14.5808H63.1562L63.2861 13.5495H61.3665C61.2799 14.28 61.1067 15.4688 60.9335 16.3139L59.548 23.59H61.6696ZM62.8387 17.3738C63.0984 15.9701 63.8345 15.0821 64.6283 15.0821C65.3211 15.0821 65.552 15.6837 65.552 16.2566C65.552 17.6603 64.6716 19.2644 63.5314 19.2644C63.1129 19.2644 62.7954 19.1355 62.5644 18.9064L62.8387 17.3738Z" fill="#11151C"/>
<path d="M70.3726 10.3125L68.9149 17.5457C68.8283 17.9754 68.7561 18.4051 68.7561 18.8491C68.7561 20.1238 69.6077 20.8543 71.3108 20.8543C74.5437 20.8543 76.0736 18.1902 76.0736 15.8699C76.0736 14.5951 75.3952 13.3776 73.8942 13.3776C73.0138 13.3776 72.2056 13.7644 71.6716 14.3803H71.6427L72.5087 10.3125H70.3726ZM71.152 17.1017C71.3973 15.8555 72.1479 15.0821 72.9128 15.0821C73.5623 15.0821 73.8509 15.6264 73.8509 16.3139C73.8509 17.5743 72.9705 19.2644 71.7437 19.2644C71.253 19.2644 70.9499 18.9923 70.9355 18.4767C70.9211 18.1759 70.9788 17.9181 71.0077 17.6889L71.152 17.1017Z" fill="#11151C"/>
<path d="M82.5972 18.7631C82.0199 19.0353 81.356 19.2215 80.5766 19.2215C79.956 19.2215 79.4797 19.0353 79.1911 18.6629C79.0468 18.4623 78.9746 18.1329 78.9746 17.9324C81.8612 18.004 83.6364 17.3451 83.6364 15.5261C83.6364 14.1941 82.5972 13.392 81.1395 13.392C78.5272 13.392 76.9396 15.655 76.9396 17.8321C76.9396 19.6941 77.9932 20.84 80.0571 20.84C80.8509 20.84 81.89 20.7111 82.7416 20.2814L82.5972 18.7631ZM81.6591 15.5261C81.6591 16.1706 80.8364 16.3998 79.1911 16.3855C79.3354 15.7123 79.8983 14.9102 80.8797 14.9102C81.3705 14.9245 81.6591 15.168 81.6591 15.5261Z" fill="#11151C"/>
<path d="M84.0838 23.3036C84.5746 23.5757 85.4694 23.7619 86.422 23.7619C87.3745 23.7619 88.4281 23.5757 89.2075 22.9598C90.0735 22.2723 90.4776 21.0978 90.7229 19.7801L91.8054 13.8933C91.0549 13.5782 90.1601 13.392 89.1353 13.392C86.0034 13.392 84.3003 15.7266 84.3003 18.1043C84.3148 19.4936 85.1807 20.6538 86.6096 20.6538C87.4611 20.6538 88.1106 20.3244 88.6735 19.5939H88.7023L88.5869 20.1954C88.2982 21.6278 87.5044 22.1004 86.4364 22.1004C85.8302 22.1004 84.9498 21.9429 84.5457 21.6994L84.0838 23.3036ZM89.1498 17.0444C88.9333 18.2618 88.2261 19.0209 87.5333 19.0209C86.8838 19.0209 86.5663 18.491 86.5663 17.7748C86.5663 16.4141 87.4756 14.9962 88.7601 14.9962C89.0487 14.9962 89.3663 15.0534 89.525 15.1251L89.1498 17.0444Z" fill="#11151C"/>
<path d="M94.4322 20.6968L95.8033 13.5495H93.6817L92.3106 20.6968H94.4322ZM95.0095 12.6472C95.6879 12.6472 96.2652 12.2031 96.2652 11.4583C96.2652 10.8281 95.8177 10.4271 95.2116 10.4271C94.5621 10.4271 93.9992 10.9141 93.9848 11.6302C93.9848 12.2604 94.4178 12.6472 95.0095 12.6472Z" fill="#11151C"/>
<path d="M98.3291 20.6968L98.9352 17.517C99.2239 15.9415 100.032 15.0821 100.725 15.0821C101.259 15.0821 101.432 15.4402 101.432 15.9272C101.432 16.185 101.403 16.4858 101.36 16.7293L100.609 20.6968H102.731L103.525 16.5431C103.583 16.185 103.64 15.655 103.64 15.3256C103.64 14.0938 102.976 13.3776 101.807 13.3776C100.855 13.3776 99.9455 13.793 99.2816 14.724H99.2528L99.3971 13.5352H97.5064C97.4198 14.1654 97.3043 14.9532 97.1167 15.8555L96.2074 20.6824H98.3291V20.6968Z" fill="#11151C"/>
<path d="M106.628 20.6968L107.234 17.517C107.523 15.9415 108.331 15.0821 109.024 15.0821C109.558 15.0821 109.731 15.4402 109.731 15.9272C109.731 16.185 109.702 16.4858 109.659 16.7293L108.908 20.6968H111.03L111.824 16.5431C111.882 16.185 111.939 15.655 111.939 15.3256C111.939 14.0938 111.275 13.3776 110.106 13.3776C109.154 13.3776 108.244 13.793 107.581 14.724H107.552L107.696 13.5352H105.805C105.719 14.1654 105.603 14.9532 105.416 15.8555L104.506 20.6824H106.628V20.6968Z" fill="#11151C"/>
<path d="M118.665 18.7631C118.088 19.0353 117.424 19.2215 116.644 19.2215C116.024 19.2215 115.547 19.0353 115.259 18.6629C115.114 18.4623 115.042 18.1329 115.042 17.9324C117.929 18.004 119.704 17.3451 119.704 15.5261C119.704 14.1941 118.665 13.392 117.207 13.392C114.595 13.392 113.007 15.655 113.007 17.8321C113.007 19.6941 114.061 20.84 116.125 20.84C116.919 20.84 117.958 20.7111 118.809 20.2814L118.665 18.7631ZM117.727 15.5261C117.727 16.1706 116.904 16.3998 115.259 16.3855C115.403 15.7123 115.966 14.9102 116.947 14.9102C117.424 14.9245 117.727 15.168 117.727 15.5261Z" fill="#11151C"/>
<path d="M122.288 20.6968L122.793 18.0327C123.053 16.629 123.688 15.4258 125.044 15.4258C125.16 15.4258 125.275 15.4258 125.376 15.4402L125.795 13.392C125.665 13.3776 125.535 13.3776 125.391 13.3776C124.409 13.3776 123.601 14.0508 123.096 14.9962H123.053C123.096 14.4948 123.139 14.0222 123.182 13.5352H121.349C121.277 14.1511 121.191 15.3542 120.989 16.4285L120.18 20.6824H122.288V20.6968Z" fill="#11151C"/>
<path fill-rule="evenodd" clip-rule="evenodd" d="M157.007 10.8113C156.705 10.4997 156.204 10.4997 155.902 10.8113L154.025 12.7443C153.828 12.9479 153.534 13.0263 153.261 12.9483L150.661 12.2051C150.242 12.0855 149.808 12.3364 149.702 12.7588L149.054 15.3541C148.984 15.6309 148.768 15.8468 148.491 15.915L145.873 16.5595C145.448 16.6641 145.196 17.1015 145.318 17.5219L146.061 20.0827C146.141 20.3584 146.061 20.6556 145.853 20.854L143.919 22.7038C143.601 23.0071 143.601 23.5138 143.919 23.817L145.853 25.6669C146.061 25.8652 146.141 26.1625 146.061 26.4381L145.318 28.999C145.196 29.4193 145.448 29.8567 145.873 29.9614L148.491 30.6058C148.768 30.674 148.984 30.8899 149.054 31.1668L149.702 33.7621C149.808 34.1845 150.242 34.4354 150.661 34.3157L153.261 33.5726C153.534 33.4946 153.828 33.573 154.025 33.7766L155.902 35.7095C156.204 36.0211 156.705 36.0211 157.007 35.7095L158.884 33.7766C159.081 33.573 159.375 33.4946 159.648 33.5726L162.248 34.3157C162.667 34.4354 163.101 34.1845 163.207 33.7621L163.855 31.1668C163.925 30.8899 164.141 30.674 164.418 30.6058L167.036 29.9614C167.461 29.8567 167.713 29.4193 167.591 28.999L166.848 26.4381C166.768 26.1625 166.848 25.8652 167.056 25.6669L168.99 23.817C169.308 23.5138 169.308 23.0071 168.99 22.7038L167.056 20.854C166.848 20.6556 166.768 20.3584 166.848 20.0827L167.591 17.5219C167.713 17.1015 167.461 16.6641 167.036 16.5595L164.418 15.915C164.141 15.8468 163.925 15.6309 163.855 15.3541L163.207 12.7588C163.101 12.3364 162.667 12.0855 162.248 12.2051L159.648 12.9483C159.375 13.0263 159.081 12.9479 158.884 12.7443L157.007 10.8113ZM154.409 24.8515L160.3 19.0047C160.464 18.8422 160.726 18.8422 160.857 19.0047L161.807 19.915C161.938 20.0775 161.938 20.3376 161.807 20.4676L154.703 27.5173C154.54 27.6798 154.31 27.6798 154.147 27.5173L151.091 24.5177C150.96 24.3551 150.96 24.095 151.091 23.965L152.041 23.0222C152.172 22.8922 152.434 22.8922 152.598 23.0222L154.409 24.8515Z" fill="#358EEA"/>
<path fill-rule="evenodd" clip-rule="evenodd" d="M134.819 35.7139L134.819 10.6797L135.204 10.6797L135.204 35.7139L134.819 35.7139Z" fill="#CFCFCF"/>
<path d="M54.0504 35.1541L57.0198 26.9127H55.8739L54.4693 30.9845C54.0996 32.0605 53.7546 33.0999 53.5205 34.0536H53.4959C53.2741 33.0877 52.9661 32.085 52.6088 30.9723L51.315 26.9127H50.1568L52.8675 35.1541H54.0504Z" fill="#11151C"/>
<path d="M62.8308 30.4098H59.6026V27.8053H63.0156V26.9127H58.5306V35.1541H63.2004V34.2615H59.6026V31.2902H62.8308V30.4098Z" fill="#11151C"/>
<path d="M65.2111 35.1541H66.283V31.5837H67.2934C68.2668 31.6203 68.7104 32.0483 68.9568 33.1855C69.1909 34.2126 69.3757 34.9218 69.5112 35.1541H70.6202C70.4477 34.8362 70.2505 34.0414 69.9795 32.892C69.7823 32.0361 69.4003 31.4492 68.7596 31.2291V31.1924C69.6345 30.8989 70.3244 30.1775 70.3244 29.0892C70.3244 28.4534 70.0903 27.8909 69.6714 27.5241C69.1539 27.0594 68.4146 26.8516 67.2688 26.8516C66.5295 26.8516 65.7532 26.9127 65.2111 27.0227V35.1541ZM66.283 27.7686C66.4555 27.7197 66.8252 27.6708 67.3427 27.6708C68.4762 27.683 69.2525 28.1477 69.2525 29.2115C69.2525 30.153 68.5255 30.7766 67.3796 30.7766H66.283V27.7686Z" fill="#11151C"/>
<path d="M72.4571 26.9127V35.1541H73.5291V26.9127H72.4571Z" fill="#11151C"/>
<path d="M76.0211 35.1541H77.0931V31.4247H80.235V30.5443H77.0931V27.8053H80.4938V26.9127H76.0211V35.1541Z" fill="#11151C"/>
<path d="M82.6415 26.9127V35.1541H83.7134V26.9127H82.6415Z" fill="#11151C"/>
<path d="M90.5057 30.4098H87.2775V27.8053H90.6905V26.9127H86.2055V35.1541H90.8753V34.2615H87.2775V31.2902H90.5057V30.4098Z" fill="#11151C"/>
<path d="M92.886 35.1297C93.4281 35.1908 94.0688 35.2275 94.8328 35.2275C96.4469 35.2275 97.7283 34.8118 98.5045 34.0414C99.2808 33.2833 99.6997 32.1828 99.6997 30.8378C99.6997 29.505 99.2684 28.5512 98.5292 27.8787C97.8022 27.2062 96.7056 26.8516 95.1654 26.8516C94.3153 26.8516 93.539 26.9249 92.886 27.0227V35.1297ZM93.9579 27.8053C94.2413 27.7442 94.6603 27.6953 95.2147 27.6953C97.4818 27.6953 98.5908 28.9303 98.5784 30.8745C98.5784 33.0999 97.334 34.3716 95.0422 34.3716C94.6233 34.3716 94.229 34.3593 93.9579 34.3104V27.8053Z" fill="#11151C"/>
</svg>
