<svg width="49" height="48" viewBox="0 0 49 48" fill="none" xmlns="http://www.w3.org/2000/svg">
<rect x="1.5" y="1" width="46" height="46" rx="7" stroke="#FECACA" stroke-width="2"/>
<rect width="7" height="15" transform="matrix(-1 0 0 1 21 21)" fill="#EF4444"/>
<path d="M13 20H37M21 20L21 36M19.4 12H30.6C32.8402 12 33.9603 12 34.816 12.436C35.5686 12.8195 36.1805 13.4314 36.564 14.184C37 15.0397 37 16.1598 37 18.4V29.6C37 31.8402 37 32.9603 36.564 33.816C36.1805 34.5686 35.5686 35.1805 34.816 35.564C33.9603 36 32.8402 36 30.6 36H19.4C17.1598 36 16.0397 36 15.184 35.564C14.4314 35.1805 13.8195 34.5686 13.436 33.816C13 32.9603 13 31.8402 13 29.6V18.4C13 16.1598 13 15.0397 13.436 14.184C13.8195 13.4314 14.4314 12.8195 15.184 12.436C16.0397 12 17.1598 12 19.4 12Z" stroke="#EF4444" stroke-width="2" stroke-linecap="round" stroke-linejoin="round"/>
</svg>
