<svg width="18" height="18" viewBox="0 0 18 18" fill="none" xmlns="http://www.w3.org/2000/svg">
<path d="M8.99981 10.3998L1.9998 17.3998C1.7998 17.5998 1.56647 17.6998 1.2998 17.6998C1.03314 17.6998 0.799805 17.5998 0.599805 17.3998C0.399805 17.1998 0.299805 16.9665 0.299805 16.6998C0.299805 16.4331 0.399805 16.1998 0.599805 15.9998L7.5998 8.99981L0.599805 1.9998C0.399805 1.7998 0.299805 1.56647 0.299805 1.2998C0.299805 1.03314 0.399805 0.799805 0.599805 0.599805C0.799805 0.399805 1.03314 0.299805 1.2998 0.299805C1.56647 0.299805 1.7998 0.399805 1.9998 0.599805L8.99981 7.5998L15.9998 0.599805C16.1998 0.399805 16.4331 0.299805 16.6998 0.299805C16.9665 0.299805 17.1998 0.399805 17.3998 0.599805C17.5998 0.799805 17.6998 1.03314 17.6998 1.2998C17.6998 1.56647 17.5998 1.7998 17.3998 1.9998L10.3998 8.99981L17.3998 15.9998C17.5998 16.1998 17.6998 16.4331 17.6998 16.6998C17.6998 16.9665 17.5998 17.1998 17.3998 17.3998C17.1998 17.5998 16.9665 17.6998 16.6998 17.6998C16.4331 17.6998 16.1998 17.5998 15.9998 17.3998L8.99981 10.3998Z" fill="#1F2937"/>
</svg>
