<svg width="24" height="16" viewBox="0 0 24 16" fill="none" xmlns="http://www.w3.org/2000/svg">
<path d="M1 16C0.711111 16 0.472222 15.9056 0.283333 15.7167C0.0944446 15.5278 0 15.2889 0 15C0 14.7111 0.0944446 14.4722 0.283333 14.2833C0.472222 14.0944 0.711111 14 1 14H23C23.2889 14 23.5278 14.0944 23.7167 14.2833C23.9056 14.4722 24 14.7111 24 15C24 15.2889 23.9056 15.5278 23.7167 15.7167C23.5278 15.9056 23.2889 16 23 16H1ZM1 9C0.711111 9 0.472222 8.90556 0.283333 8.71667C0.0944446 8.52778 0 8.28889 0 8C0 7.71111 0.0944446 7.47222 0.283333 7.28333C0.472222 7.09444 0.711111 7 1 7H23C23.2889 7 23.5278 7.09444 23.7167 7.28333C23.9056 7.47222 24 7.71111 24 8C24 8.28889 23.9056 8.52778 23.7167 8.71667C23.5278 8.90556 23.2889 9 23 9H1ZM1 2C0.711111 2 0.472222 1.90556 0.283333 1.71667C0.0944446 1.52778 0 1.28889 0 1C0 0.711111 0.0944446 0.472222 0.283333 0.283333C0.472222 0.0944446 0.711111 0 1 0H23C23.2889 0 23.5278 0.0944446 23.7167 0.283333C23.9056 0.472222 24 0.711111 24 1C24 1.28889 23.9056 1.52778 23.7167 1.71667C23.5278 1.90556 23.2889 2 23 2H1Z" fill="#1F2937"/>
</svg>
