<svg width="231" height="32" viewBox="0 0 231 32" fill="none" xmlns="http://www.w3.org/2000/svg">
    <g clip-path="url(#clip0_202_61940)">
        <path d="M18.2043 1.39965C18.2043 0.637895 17.5974 0.0247726 16.8357 0H8.81553C8.31389 0 7.8494 0.272499 7.60787 0.706019L1.26608 11.9652C0.74586 12.8879 1.41472 14.0337 2.47375 14.0337H10.4815C10.9831 14.0275 11.4414 13.755 11.6892 13.3215L18.0062 2.12425C18.0062 2.12425 18.0062 2.12425 18 2.12425C18.13 1.91368 18.2043 1.66596 18.2043 1.39965Z" fill="#0065FF"/>
        <path d="M46.2193 16.0024C46.2193 15.7423 46.145 15.5008 46.0211 15.2964L38.5151 1.96875L32.9103 11.884L34.8673 15.3521C34.9788 15.5503 35.0345 15.7795 35.0345 16.0272C35.0345 16.2502 34.9726 16.4607 34.8797 16.6465L27.4851 29.776C27.3178 30.0051 27.2188 30.2838 27.2188 30.5935C27.2188 31.3614 27.8381 31.9869 28.606 31.9993H36.6014C37.103 31.9993 37.5675 31.7268 37.809 31.2933L46.0831 16.6094C46.0831 16.6094 46.0769 16.6032 46.0707 16.6032C46.1574 16.4174 46.2131 16.2192 46.2131 16.0024H46.2193Z" fill="#0065FF"/>
        <path d="M38.5099 1.96942L37.4014 0L31.939 9.60557L31.7842 9.87807L30.5703 12.0147C30.8118 11.5936 31.2639 11.3149 31.7842 11.3149C32.2487 11.3149 32.6636 11.544 32.9175 11.8908L38.5099 1.96942Z" fill="#004CBA"/>
        <path d="M27.1018 0C27.0832 0 27.0708 0 27.0522 0C26.501 0 26.0242 0.322044 25.8012 0.78653L14.9198 20.0163C14.6783 20.4436 14.2138 20.7409 13.6874 20.7409C13.161 20.7409 12.6717 20.4312 12.4364 19.9853L10.5908 16.7153C10.3431 16.2756 9.87862 16.0093 9.37697 16.0093L1.38781 16.0341C0.328783 16.0341 -0.340077 17.1798 0.180147 18.1026L7.61812 31.3002C7.86584 31.7337 8.32414 32.0062 8.82578 32.0062H18.3385C18.3508 32.0062 18.3632 32.0062 18.3756 32.0062C18.9082 32.0062 19.3603 31.7089 19.6019 31.2692L26.4267 19.2855L30.5637 12.0147L31.7776 9.87808L31.9324 9.60558L37.401 0H27.1018Z" fill="#0065FF"/>
        <path d="M55.5765 5.17513C55.5765 4.56201 55.7933 4.04178 56.2206 3.61446C56.6479 3.18713 57.1743 2.97656 57.7937 2.97656C58.351 2.97656 58.8093 3.13139 59.1685 3.44724C59.5277 3.76309 59.7631 4.10991 59.8746 4.48769L64.2655 20.3483L68.5635 4.56201C68.6812 4.08514 68.9413 3.70116 69.3377 3.41008C69.734 3.11901 70.1614 2.97656 70.6321 2.97656C71.1027 2.97656 71.5301 3.1252 71.9264 3.41628C72.3228 3.71355 72.5829 4.10372 72.7006 4.59297L76.9986 20.3793L81.4391 4.46292C81.5506 4.09133 81.7859 3.74451 82.1451 3.44105C82.5043 3.13139 82.9626 2.97656 83.5076 2.97656C84.1022 2.97656 84.6162 3.18713 85.0373 3.60207C85.4585 4.0232 85.669 4.53724 85.669 5.14417C85.669 5.37331 85.6319 5.60246 85.5575 5.81922L79.0981 27.4519C78.968 27.904 78.7141 28.2756 78.3425 28.5667C77.9709 28.8577 77.5498 29.0002 77.0853 29.0002C76.5961 29.0002 76.1687 28.8515 75.8033 28.5481C75.4379 28.2446 75.184 27.8544 75.054 27.3714L70.694 11.9071L66.3464 27.3776C66.2101 27.8606 65.95 28.2508 65.5599 28.5481C65.1697 28.8515 64.73 29.0002 64.2221 29.0002C63.7143 29.0002 63.3118 28.8577 62.9216 28.579C62.5314 28.2942 62.2713 27.935 62.135 27.489L55.6818 5.85638C55.6075 5.63342 55.5703 5.41047 55.5703 5.17513H55.5765Z" fill="#082940"/>
        <path d="M88.7812 26.8292V5.46905C88.7812 4.86832 88.9918 4.35428 89.4191 3.92696C89.8403 3.50582 90.3605 3.28906 90.9736 3.28906H98.1763C100.511 3.28906 102.412 3.94554 103.886 5.26468C105.36 6.57762 106.097 8.50369 106.097 11.0367C106.097 13.5697 105.366 15.4834 103.899 16.8087C102.431 18.134 100.523 18.8029 98.1824 18.8029H93.1536V26.823C93.1536 27.4362 92.943 27.9564 92.5281 28.3713C92.1132 28.7863 91.5929 28.9968 90.9798 28.9968C90.3667 28.9968 89.8465 28.7863 89.4191 28.3589C88.9918 27.9316 88.7812 27.4238 88.7812 26.8168V26.8292ZM93.1536 14.8764H97.8356C99.0185 14.8764 99.9351 14.542 100.592 13.8732C101.248 13.2043 101.576 12.2567 101.576 11.0429C101.576 9.82903 101.242 8.86909 100.579 8.21262C99.9165 7.55614 98.9999 7.22791 97.8294 7.22791H93.1474V14.8826L93.1536 14.8764Z" fill="#082940"/>
        <path d="M109.008 16.0173C109.008 11.6264 110.036 8.31926 112.098 6.09592C114.161 3.87258 117.059 2.75781 120.793 2.75781C122.577 2.75781 124.212 3.11702 125.711 3.82923C127.203 4.54144 128.399 5.51996 129.297 6.76478C129.47 7.0125 129.557 7.27262 129.557 7.5575C129.557 7.90432 129.445 8.1892 129.216 8.42454C128.987 8.65988 128.702 8.77755 128.361 8.77755C127.965 8.77755 127.637 8.61034 127.364 8.2821C126.689 7.34693 125.766 6.58518 124.596 5.99683C123.425 5.40848 122.162 5.11121 120.8 5.11121C117.852 5.11121 115.585 6.0216 114.012 7.84239C112.439 9.66317 111.652 12.3943 111.652 16.0297C111.652 19.6651 112.426 22.6068 113.969 24.3285C115.511 26.0502 117.79 26.9111 120.8 26.9111C122.113 26.9111 123.357 26.651 124.534 26.1246C125.711 25.5981 126.652 24.8302 127.364 23.8083C127.6 23.4739 127.928 23.3129 128.361 23.3129C128.708 23.3129 128.993 23.4305 129.216 23.6659C129.445 23.9012 129.557 24.1861 129.557 24.5329C129.557 24.793 129.482 25.0284 129.334 25.2513C128.51 26.459 127.315 27.4251 125.748 28.1559C124.181 28.8867 122.527 29.2521 120.793 29.2521C117.003 29.2521 114.099 28.1745 112.061 26.0255C110.023 23.8764 109.008 20.5445 109.008 16.0297V16.0173Z" fill="#082940"/>
        <path d="M134.601 26.9183C133.208 25.3948 132.508 23.1219 132.508 20.0934C132.508 17.065 133.201 14.8045 134.589 13.2996C135.976 11.7946 137.927 11.0391 140.435 11.0391C142.943 11.0391 144.906 11.7946 146.294 13.2996C147.675 14.8045 148.368 17.0712 148.368 20.0934C148.368 23.1157 147.675 25.3948 146.294 26.9183C144.913 28.4418 142.956 29.2036 140.435 29.2036C137.914 29.2036 135.995 28.4418 134.601 26.9183ZM134.96 20.0934C134.96 24.7073 136.787 27.0112 140.435 27.0112C144.083 27.0112 145.91 24.7073 145.91 20.0934C145.91 15.4796 144.083 13.2129 140.435 13.2129C136.787 13.2129 134.96 15.5043 134.96 20.0934Z" fill="#082940"/>
        <path d="M152.133 27.8023V12.4557C152.133 12.1089 152.25 11.824 152.486 11.601C152.721 11.3781 153.006 11.2604 153.353 11.2604C153.7 11.2604 153.985 11.3719 154.208 11.601C154.43 11.8302 154.548 12.1151 154.548 12.4557V13.6695C154.932 12.9078 155.57 12.2761 156.468 11.7806C157.366 11.2852 158.406 11.0312 159.583 11.0312C160.704 11.0312 161.683 11.1613 162.525 11.4276C163.367 11.6939 164.036 12.0345 164.538 12.4495C165.039 12.8644 165.436 13.3785 165.745 13.9792C166.055 14.5799 166.259 15.1807 166.365 15.769C166.47 16.3574 166.52 17.0076 166.52 17.7075V27.7961C166.52 28.1429 166.408 28.4278 166.179 28.6508C165.95 28.8737 165.665 28.9914 165.324 28.9914C164.984 28.9914 164.693 28.8799 164.457 28.6508C164.222 28.4216 164.104 28.1367 164.104 27.7961V18.2029C164.104 17.404 164.042 16.7166 163.912 16.1468C163.782 15.577 163.553 15.0506 163.231 14.5799C162.903 14.1092 162.438 13.7562 161.837 13.5209C161.237 13.2856 160.487 13.1679 159.589 13.1679C156.233 13.1679 154.554 14.9329 154.554 18.463V27.7961C154.554 28.1429 154.443 28.4278 154.214 28.6508C153.985 28.8737 153.7 28.9914 153.359 28.9914C153.018 28.9914 152.727 28.8799 152.492 28.6508C152.257 28.4216 152.139 28.1367 152.139 27.7961L152.133 27.8023Z" fill="#082940"/>
        <path d="M169.852 25.7265C169.852 25.4169 169.957 25.163 170.167 24.9524C170.378 24.7418 170.632 24.6365 170.942 24.6365C171.251 24.6365 171.524 24.7604 171.771 25.0081C173.01 26.2468 174.614 26.8723 176.565 26.8723C177.748 26.8723 178.708 26.6555 179.451 26.2158C180.194 25.7761 180.566 25.101 180.566 24.1783C180.566 23.7138 180.423 23.2988 180.138 22.9458C179.853 22.5866 179.482 22.3017 179.011 22.0788C178.547 21.8558 178.014 21.6453 177.413 21.4347C176.819 21.2303 176.212 21.0197 175.599 20.803C174.986 20.5924 174.379 20.3323 173.784 20.035C173.19 19.7378 172.657 19.4033 172.186 19.0379C171.722 18.6725 171.344 18.2019 171.059 17.6197C170.774 17.0376 170.638 16.3749 170.638 15.6379C170.638 14.1392 171.177 13.0058 172.255 12.2379C173.332 11.4699 174.719 11.0859 176.416 11.0859C179.036 11.0859 180.95 11.891 182.151 13.5013C182.337 13.749 182.43 13.9905 182.43 14.2197C182.43 14.5293 182.325 14.7832 182.108 14.9938C181.891 15.2044 181.631 15.3097 181.321 15.3097C181.012 15.3097 180.751 15.1982 180.529 14.9752C179.977 14.4488 179.383 14.0525 178.751 13.7862C178.119 13.5198 177.339 13.3898 176.416 13.3898C175.444 13.3898 174.645 13.5694 174.007 13.9224C173.375 14.2816 173.06 14.8638 173.06 15.6751C173.06 16.1519 173.202 16.5731 173.481 16.9509C173.759 17.3286 174.131 17.6321 174.596 17.8674C175.06 18.1028 175.593 18.3319 176.193 18.5425C176.794 18.7531 177.401 18.9698 178.008 19.1804C178.615 19.3971 179.222 19.6511 179.823 19.9483C180.423 20.2456 180.956 20.5676 181.427 20.9083C181.897 21.2551 182.275 21.7072 182.56 22.2708C182.845 22.8343 182.987 23.4722 182.987 24.1844C182.987 25.293 182.696 26.2282 182.12 26.9961C181.544 27.7641 180.782 28.3215 179.835 28.6683C178.887 29.0089 177.797 29.1823 176.571 29.1823C175.147 29.1823 173.852 28.9036 172.7 28.3524C171.542 27.8012 170.681 27.1634 170.118 26.4511C169.944 26.2034 169.858 25.9681 169.858 25.7327L169.852 25.7265Z" fill="#082940"/>
        <path d="M185.938 20.0934C185.938 17.2012 186.619 14.9717 187.981 13.3987C189.344 11.8256 191.257 11.0391 193.716 11.0391C194.688 11.0391 195.562 11.1567 196.342 11.3983C197.122 11.6398 197.766 11.968 198.28 12.383C198.788 12.7979 199.228 13.2562 199.587 13.7455C199.953 14.2347 200.225 14.7735 200.411 15.3495C200.597 15.9255 200.727 16.4581 200.807 16.9473C200.888 17.4366 200.925 17.9135 200.925 18.3965C200.925 18.7681 200.919 19.053 200.9 19.2512C200.882 19.4556 200.826 19.6971 200.745 19.982C200.659 20.2669 200.504 20.4712 200.287 20.6075C200.064 20.7437 199.779 20.8119 199.42 20.8119H188.39C188.39 22.6946 188.898 24.1871 189.913 25.3019C190.929 26.4167 192.323 26.974 194.094 26.974C195.079 26.974 195.915 26.8316 196.602 26.5405C197.29 26.2494 197.965 25.8531 198.633 25.3514C198.881 25.1904 199.104 25.1099 199.315 25.1099C199.624 25.1099 199.878 25.2152 200.089 25.4319C200.299 25.6487 200.405 25.9088 200.405 26.2185C200.405 26.5281 200.268 26.813 199.996 27.0855C199.723 27.358 199.383 27.6305 198.962 27.9092C198.547 28.1879 197.884 28.4728 196.98 28.7639C196.076 29.0611 195.116 29.2036 194.094 29.2036C191.499 29.2036 189.492 28.4542 188.074 26.9617C186.656 25.4691 185.944 23.1776 185.944 20.0934H185.938ZM188.39 18.6938H198.553C198.553 17.9568 198.479 17.288 198.33 16.681C198.181 16.0741 197.94 15.5043 197.599 14.9593C197.259 14.4143 196.763 13.987 196.107 13.6773C195.45 13.3677 194.651 13.2191 193.716 13.2191C192.106 13.2191 190.842 13.7021 189.926 14.6744C189.009 15.6468 188.495 16.9845 188.384 18.6938H188.39Z" fill="#082940"/>
        <path d="M204.656 27.8023V12.4557C204.656 12.1089 204.774 11.824 205.009 11.601C205.245 11.3781 205.529 11.2604 205.876 11.2604C206.223 11.2604 206.508 11.3719 206.731 11.601C206.954 11.8302 207.072 12.1151 207.072 12.4557V13.6695C207.456 12.9078 208.093 12.2761 208.991 11.7806C209.889 11.2852 210.93 11.0312 212.107 11.0312C213.228 11.0312 214.206 11.1613 215.048 11.4276C215.891 11.6939 216.559 12.0345 217.061 12.4495C217.563 12.8644 217.959 13.3785 218.269 13.9792C218.578 14.5799 218.783 15.1807 218.888 15.769C218.993 16.3574 219.043 17.0076 219.043 17.7075V27.7961C219.043 28.1429 218.931 28.4278 218.702 28.6508C218.473 28.8737 218.188 28.9914 217.848 28.9914C217.507 28.9914 217.216 28.8799 216.981 28.6508C216.745 28.4216 216.628 28.1367 216.628 27.7961V18.2029C216.628 17.404 216.566 16.7166 216.436 16.1468C216.306 15.577 216.076 15.0506 215.754 14.5799C215.426 14.1092 214.962 13.7562 214.361 13.5209C213.76 13.2856 213.011 13.1679 212.113 13.1679C208.756 13.1679 207.078 14.9329 207.078 18.463V27.7961C207.078 28.1429 206.966 28.4278 206.737 28.6508C206.508 28.8737 206.223 28.9914 205.883 28.9914C205.542 28.9914 205.251 28.8799 205.015 28.6508C204.78 28.4216 204.662 28.1367 204.662 27.7961L204.656 27.8023Z" fill="#082940"/>
        <path d="M222.236 13.5082C222.019 13.2914 221.914 13.0251 221.914 12.7031C221.914 12.381 222.019 12.1147 222.236 11.8918C222.453 11.6688 222.719 11.5573 223.035 11.5573H224.509V7.59372C224.509 7.27167 224.633 6.99298 224.881 6.75764C225.128 6.51611 225.407 6.39844 225.729 6.39844C226.051 6.39844 226.342 6.51611 226.578 6.75145C226.813 6.98679 226.931 7.26548 226.931 7.59991V11.5635H229.402C229.724 11.5635 229.99 11.675 230.2 11.898C230.411 12.1209 230.523 12.3872 230.523 12.7093C230.523 13.0313 230.417 13.2976 230.2 13.5144C229.984 13.7311 229.717 13.8364 229.402 13.8364H226.931V24.2595C226.931 25.0584 227.129 25.6777 227.531 26.1112C227.928 26.5509 228.46 26.7677 229.129 26.7677C229.464 26.7677 229.742 26.873 229.971 27.0897C230.201 27.3065 230.312 27.5728 230.312 27.8949C230.312 28.2169 230.201 28.4832 229.971 28.6938C229.742 28.9105 229.464 29.0158 229.129 29.0158C227.668 29.0158 226.534 28.5823 225.729 27.7091C224.924 26.8358 224.521 25.6839 224.521 24.2595V13.8364H223.047C222.725 13.8364 222.459 13.7311 222.248 13.5144L222.236 13.5082Z" fill="#082940"/>
    </g>
    <defs>
        <clipPath id="clip0_202_61940">
            <rect width="230.534" height="32" fill="white"/>
        </clipPath>
    </defs>
</svg>
